<?xml version="1.0" encoding="UTF-8"?><svg id="a" xmlns="http://www.w3.org/2000/svg" viewBox="0 0 1287.22 729.04"><defs><style>.c{fill:#fdfefe;}.d{fill:#ef3f24;}</style></defs><g id="b"><path class="c" d="M620.38,354.37c1.42-.58,2.76-1.58,3.98-2.54,15.44-12.24,30.4-25.26,43.08-40.35,12.68-15.09,23.07-32.37,28.45-51.33,1.19,18.85,1.38,37.76,.59,56.63-.4,9.43-1.04,18.86-1.93,28.26-.85,8.94-1.01,18.27-2.77,27.09-2.04,16.09-4.42,32.15-7.36,48.11-3.93,21.38-8.42,42.65-13.4,63.81-8.53,36.21-18.56,72.01-28.93,107.73-1.17,4.03-2.25,8.09-3.52,12.09-.44,1.38-.49,2.01,1.2,2.26,13.72,2.02,27.44,4.02,41.14,6.21,26.96,4.3,53.83,9.05,79.58,18.53,11.03,4.06,21.81,8.65,30.48,16.95,3.3,3.16,6.12,6.65,6.3,11.61,.21,5.72-3.29,9.13-7.45,11.99-6.88,4.73-14.8,6.98-22.78,8.96-10.09,2.51-20.41,3.67-30.7,4.99-15.77,2.02-31.63,2.61-47.5,2.86-12.15,.19-24.28-.43-36.41-.89-.84-.03-1.69-.07-2.47-.38-1.04-.42-1.82-1.28-2.56-2.12l-8.42-9.48c-2.03-2.28-4.11-3.66-7.2-2.86-1.58,.41-1.35,.11-1.69,1.92-1.72,9.16-3.48,18.31-5.31,27.45-.95,4.75-1.92,9.5-2.91,14.24-.51,2.42-1.25,11.96-3.28,12.93-1.58-4.02-2.06-8.86-3.08-13.09-1.13-4.66-2.31-9.32-3.49-13.97-2.35-9.27-4.71-18.55-6.59-27.94-.11-.52-.24-1.1-.68-1.4-.26-.18-.59-.24-.9-.28-1.23-.16-2.52-.21-3.67,.25-1.29,.51-2.26,1.58-3.17,2.62l-6.93,7.84c-1.14,1.29-2.3,2.6-3.77,3.48-3.03,1.81-8.31,1.02-11.76,1.16-4.91,.21-9.82,.36-14.73,.45-9.82,.18-19.65,.09-29.46-.39-23.02-1.14-45.99-3-68.31-9.27-6.64-1.86-13.1-4.33-18.38-9.01-6.38-5.66-6.72-12.8-1.05-19.24,6.77-7.71,15.59-12.33,24.83-16.24,17.93-7.59,36.71-12.29,55.73-16.08,18.94-3.77,38.02-6.71,57.14-9.39,5.29-.74,10.55-1.7,15.84-2.42,1.99-.27,1.57-1.17,1.22-2.54-5.55-21.42-11.08-42.84-16.52-64.29-8.81-34.78-17.09-69.68-23.85-104.93-3.81-19.87-7.16-39.81-9.79-59.87-4.12-31.38-6.45-62.89-6.27-94.57,.03-5.27-.69-11.12,.11-16.31-.15,.98,2.33,4.33,2.79,5.37,.79,1.75,1.49,3.55,2.27,5.31,2.17,4.9,4.52,9.72,7.06,14.44,8.77,16.32,20.38,30.93,34,43.49,8.34,7.69,16.77,14.99,26.48,21.01,1.14,.71,2.33,1.41,3.66,1.59,1.08,.15,2.12-.06,3.12-.47Z"/><path class="d" d="M558.02,172.05c2.19-7.16,4.93-13.43,7.68-19.67,3.72-8.44,7.98-16.69,10.71-25.49,3.24-10.47,5.18-21.16-2.87-30.69-10.62-12.57-29.75-12.13-44.74-11.75-3.77,.1-7.54,.26-11.31,.38-.84,.03-1.74,.08-2.38,.62-.43,.36-.67,.89-.87,1.42-.52,1.38-.84,2.86-1.72,4.05-.62,.84-1.9,1.75-3.02,1.51-1.23-.26-1.62-1.92-2.09-2.97-1.3-2.87-2.32-6-1.75-9.18,.66-3.73,2.88-7.04,5.35-9.83,6.8-7.7,15.95-11.74,25.43-15.07,2.44-.86,4.81-1.92,7.33-2.55,1.34-.33,2.54-.48,3.91-.35,1.6,.16,3.2,.53,4.79,.11,1.13-.3,2.17-.85,3.18-1.45,1.88-1.12,3.64-2.43,5.47-3.62s3.77-2.15,5.74-3.11c4.35-2.11,8.9-3.79,13.55-5.12,.09-.03,.18-.05,.28-.08,4.51-1.27,9.11-2.19,13.75-2.81,26.92-3.57,49.58,10.79,57.93,35.13,4.72,13.76,7.11,27.78,7.4,42.25,.17,8.62,2.33,16.84,5.48,24.81,3.88,9.81,7.9,19.56,11.85,29.35,.3,.73,.9,1.43,.35,2.54,.41-.83-8.75-9.18-9.75-10.15-3.27-3.19-6.7-6.22-10.28-9.05-10.54-8.36-23.98-17.88-37.89-18.53-9.9-.46-19.7,4.23-27.93,9.34-6.42,3.99-12.31,8.77-17.85,13.9-2.65,2.46-5.19,5.01-7.69,7.61-1.36,1.42-2.71,2.84-4.06,4.26-.96,1.02-3.58,2.88-3.98,4.18Z"/><path class="c" d="M1069.97,593.13c0,9.79-.13,19.59,.08,29.38,.07,2.99-.94,3.49-3.63,3.47-15.78-.12-31.56,.09-47.33-.1-18.13-.22-32.88-10-38.22-27.08-6.14-19.63-6.92-39.4,.78-58.86,6.36-16.09,19.37-25,37.01-25.33,16.19-.3,32.38-.05,48.57-.14,2.09-.01,2.88,.45,2.8,2.69-.17,4.63-.17,9.28,0,13.91,.08,2.21-.64,2.73-2.76,2.71-13.82-.09-27.65,.28-41.45-.14-13.38-.41-21.28,6.63-23.83,18.87-2.77,13.27-3.07,26.55,1.23,39.58,2.91,8.82,9.34,13.32,18.56,13.41,8.04,.08,16.09-.04,24.13,.08,1.95,.03,2.43-.58,2.4-2.45-.1-7.01-.1-14.02,0-21.03,.03-1.95-.43-2.66-2.55-2.63-7.63,.14-15.26-.03-22.89,.1-2.18,.04-3.06-.33-2.95-2.8,.22-4.94,.12-9.89,.04-14.84-.03-1.58,.41-2.14,2.07-2.13,15.26,.06,30.53,.07,45.79-.01,2.21-.01,2.2,1.12,2.2,2.7-.03,10.21-.02,20.41-.02,30.62Z"/><path class="d" d="M354.98,569.02c0-16.6,.06-33.21-.06-49.81-.02-2.49,.71-3.1,3.09-3.02,5.36,.17,10.73,.17,16.09,0,2.37-.07,3.16,.52,3.13,3.03-.14,12.27,0,24.55-.12,36.82-.02,2.46,.43,3.34,3.14,3.3,11.66-.17,23.32-.17,34.97,0,2.69,.04,3.15-.79,3.13-3.26-.13-12.37,0-24.75-.11-37.13-.02-2.1,.44-2.83,2.68-2.77,5.77,.17,11.55,.11,17.33,.02,1.69-.03,2.31,.38,2.31,2.21-.05,34.03-.05,68.07,0,102.1,0,1.88-.72,2.2-2.36,2.18-5.88-.07-11.76-.12-17.64,.02-2.07,.05-2.32-.78-2.31-2.53,.06-13.1-.04-26.2,.1-39.29,.03-2.61-.7-3.21-3.24-3.18-11.55,.15-23.11,.17-34.66-.01-2.86-.05-3.37,.87-3.35,3.49,.13,12.68-.01,25.37,.12,38.06,.03,2.59-.43,3.64-3.33,3.5-5.35-.26-10.73-.21-16.09-.02-2.41,.09-2.89-.72-2.88-2.97,.09-16.91,.05-33.83,.05-50.74Z"/><path class="c" d="M1213.57,579.12c-8.97,0-17.95,.05-26.92-.04-2.04-.02-2.7,.6-2.54,2.65,.59,7.57,1.42,14.96,7.77,20.4,2.78,2.39,5.77,3.76,9.41,4.04,13.08,1.01,26.19,.29,39.28,.43,2.23,.02,3.06,.42,2.95,2.85-.21,4.73-.13,9.49-.03,14.23,.04,1.73-.43,2.31-2.23,2.27-14.53-.3-29.11,.77-43.6-.68-16.76-1.68-27.62-11.24-33.37-26.73-3.77-10.16-4.56-20.73-4.12-31.56,.42-10.3,1.99-20.25,6.27-29.61,6.11-13.38,16.71-20.72,31.32-22.19,14.61-1.47,29.26-.3,43.89-.68,1.27-.03,1.85,.28,1.83,1.7-.07,5.26-.11,10.52,.01,15.78,.05,2.03-1.13,1.77-2.38,1.76-11.24,0-22.49-.16-33.73,.03-16.54,.29-22.64,11.07-23.27,24.32-.11,2.38,1.52,1.73,2.7,1.73,10.93,.03,21.87,.02,32.8,.02,6.91,0,13.83,.13,20.73-.07,2.67-.08,3.28,.8,3.16,3.29-.2,4.32-.19,8.67,0,12.99,.1,2.36-.48,3.17-3.01,3.12-8.97-.16-17.95-.06-26.92-.06Z"/><path class="c" d="M832.59,579.12c-8.97,0-17.95,0-26.92,0-1.26,0-2.87-.45-2.75,1.79,.42,8.02,1.28,15.8,8.08,21.5,2.66,2.22,5.52,3.45,8.9,3.73,13.08,1.06,26.18,.33,39.27,.44,2.47,.02,3.11,.68,3.01,3.08-.19,4.63-.11,9.28-.03,13.92,.03,1.6-.18,2.41-2.12,2.37-14.53-.31-29.07,.49-43.6-.62-15.05-1.15-28.5-11.91-33.52-27.06-3.23-9.75-4.34-19.74-4-30.06,.31-9.56,1.63-18.82,5.03-27.73,5.67-14.87,16.32-23.61,32.31-25.29,14.7-1.54,29.46-.32,44.19-.72,1.77-.05,1.7,.91,1.7,2.13-.03,4.95-.12,9.9,.04,14.84,.07,2.04-.7,2.33-2.48,2.32-10.83-.07-21.66,0-32.49-.05-16.29-.08-23.65,9.97-24.3,24.24-.12,2.57,1.64,1.85,2.91,1.86,17.53,.03,35.07,.12,52.6-.07,3.28-.04,3.97,.94,3.78,3.93-.26,4-.22,8.05,0,12.06,.14,2.6-.42,3.53-3.29,3.45-8.76-.22-17.53-.08-26.3-.08Z"/><path class="d" d="M207.06,577.78c-9.38,0-18.77,.06-28.15-.05-2.13-.03-2.79,.48-2.75,2.71,.14,8.07,2.03,15.17,8.98,20.28,4.11,3.02,8.76,3.44,13.47,3.49,12.27,.14,24.54,.1,36.81,.01,2.06-.02,2.88,.35,2.78,2.63-.2,4.53-.14,9.07-.02,13.6,.05,1.78-.54,2.27-2.27,2.24-14.95-.22-29.92,.65-44.84-.53-18.78-1.48-33.01-12.11-37.99-32.27-4.07-16.45-3.48-32.9,2.99-48.72,5.93-14.5,17.09-22.49,32.65-24.15,15.83-1.68,31.73-.43,47.59-.81,1.22-.03,1.88,.19,1.86,1.65-.07,4.95-.11,9.9,.01,14.84,.05,2.1-1.26,1.68-2.43,1.68-11.55,0-23.1-.11-34.65,.05-6.12,.09-12.07,1.17-17.04,5.24-5.8,4.75-7.77,11.1-7.89,18.31-.04,2.42,1.64,1.64,2.77,1.64,18.05,.04,36.09,.03,54.14,.03q5.06,0,5.06,5.21c0,3.4-.13,6.81,.05,10.2,.12,2.13-.45,2.78-2.68,2.75-9.49-.13-18.97-.06-28.46-.06Z"/><path class="d" d="M312.1,622.67c-8.03-.16-17.53,.53-26.9-1.43-16.23-3.39-26.68-13.24-31.14-29-4.85-17.14-4.85-34.34,1.98-51.06,5.94-14.55,17.09-22.47,32.63-24.14,15.73-1.68,31.53-.42,47.29-.83,1.77-.05,2,.72,1.98,2.2-.07,4.43-.14,8.87,.03,13.3,.08,2.13-.69,2.55-2.64,2.54-11.96-.05-23.93-.19-35.89,.12-11.51,.3-18.71,6.14-21.81,17.29-3.25,11.7-3.5,23.63-.94,35.42,1.64,7.58,5.47,14.08,13.85,16.2,3.09,.78,6.29,1,9.49,1,11.65-.02,23.31,.08,34.96-.07,2.53-.03,3.07,.77,2.97,3.09-.18,4.32-.14,8.66,0,12.99,.06,1.91-.55,2.45-2.44,2.43-7.32-.1-14.65-.04-23.4-.04Z"/><path class="d" d="M100.84,516.41c14.34,0,28.67,.04,43-.05,2.1-.01,2.85,.41,2.76,2.66-.19,4.53-.16,9.07,0,13.6,.07,1.99-.62,2.37-2.46,2.35-9.69-.09-19.39,.05-29.08-.1-2.47-.04-3.05,.68-3.04,3.08,.09,27.11,.01,54.23,.12,81.34,.01,2.67-.56,3.57-3.38,3.44-5.45-.25-10.93-.22-16.39,0-2.64,.1-3.46-.5-3.44-3.33,.13-27.01,.03-54.02,.15-81.03,.01-2.83-.71-3.55-3.51-3.49-9.38,.18-18.77,0-28.15,.12-2.07,.03-2.6-.6-2.53-2.59,.14-4.33,.18-8.66,0-12.99-.1-2.35,.47-3.09,2.98-3.07,14.33,.13,28.67,.07,43,.07Z"/><path class="c" d="M1085.59,551.99c0-11.65,.05-23.29-.04-34.93-.02-1.97,.45-2.64,2.52-2.58,5.25,.15,10.52,.18,15.77,0,2.32-.08,2.89,.56,2.88,2.88-.09,22.47-.05,44.93-.04,67.4,0,3.72,.28,7.43,1.56,10.93,2.85,7.83,8.7,11.56,18.37,11.69,8.66,.11,17.32,.08,25.98,0,1.94-.02,2.7,.39,2.62,2.51-.17,4.53-.12,9.07-.02,13.6,.04,1.78-.3,2.56-2.34,2.51-12.46-.3-24.93,.35-37.39-.58-12.73-.95-24.61-11.27-27.91-24.75-1.25-5.1-1.89-10.31-1.91-15.57-.04-11.03-.01-22.05-.01-33.08h-.02Z"/><g><path class="d" d="M1238.52,24.53c1.71,35.99-10.92,66.88-36.63,92.43-41.18,40.92-96.97,60.57-154.55,55.69-30.51-2.59-60.64-9.08-91.22-10.56-38.15-1.84-76.26,4.74-111.96,18.14-34.57,12.97-66.84,32.82-93.4,58.52-1.05,1.02-2.09,2.04-3.13,3.08-2.02,2.02-4.59,4.72-7.5,5.4-1.3,.3-2.85-.06-3.55-1.2-.41-.67-.47-1.49-.43-2.28,.17-3.32,1.83-6.36,3.57-9.19,9.35-15.24,22.02-28.27,36.09-39.3,29.45-23.06,64.63-39.67,100.66-49.37,7.14-1.92,14.35-3.57,21.61-4.94,48.96-9.23,99.34-5.78,149-9.8,69.01-5.58,139.66-29.94,180.72-88.99,3.1-4.46,5.58-9.35,8.37-14.02,.73-1.23,1.56-2.41,2.34-3.62Z"/><path class="d" d="M1065.39,231.83c-26.72-.24-53.39-3.04-79.57-8.12-26.31-5.1-53.01-8.86-79.86-8.97-37.09-.16-75.58,5.85-109.64,21-11.28,5.02-22.01,11.27-31.93,18.61-2.38,1.76-14.46,8.9-10.46,.37,3.04-6.49,8.42-11.57,14.01-16.07,13.73-11.04,29.41-19.41,45.81-25.76,4.14-1.6,8.33-3.08,12.55-4.45,3.73-1.21,7.47-1.56,11.15-2.82,8.95-3.04,18.12-5.39,27.42-7.09,26.23-4.8,53.1-4.71,79.63-3.03,39.52,2.5,79.63,9.51,119.24,6.1,2.55-.22,5.1-.49,7.64-.8,24.44-3.04,48.02-10.74,70.6-20.38,11.39-4.86,22.56-10.21,33.62-15.77,5.89-2.96,11.25-6.63,17.54-8.76,2.71-.91,5.8-.63,4.94,2.91-3.32,13.7-12.37,24.77-21.75,34.89-9.3,10.03-20.24,18.79-32.87,24.23-23.15,9.98-46.36,13.7-71.53,13.88-2.18,.02-4.36,.01-6.54,0Z"/><path class="d" d="M828.51,276.54c26.74,.16,53.26,6.73,78.11,16.49,30.02,11.79,57.28,30.64,88.78,38.57,16.6,4.18,33.76,5.04,50.77,6.06,5.36,.32,13.02-1.43,17.92,1.25,8.28,4.51-4.89,13.41-9.32,16.08-17.52,10.54-37.72,17.08-58.17,16.87-27.04-.27-54.26-11.77-77.36-25.39-19.45-11.46-39.77-21.4-60.65-30.01-16.9-6.97-34.05-13.29-52.16-16.17-11.54-1.83-20.86-4.17-32.59-4.48-7.62-.2-17.38,.92-24.86,2.48-1.1,.23-2.97,.54-4.34,.15-1.6-.45-1.6-2.76-.04-3.33,21.31-7.78,42.97-15.15,65.51-17.62,6.13-.67,12.27-.97,18.4-.94Z"/><path class="d" d="M887.34,232.04c24.58,.19,49.3,3.89,73.46,10.61,2.06,.57,4.12,1.13,6.17,1.72,22.45,6.42,44.65,13.74,67.38,19.19,18.76,4.49,37.67,7.7,57.06,7.17,22.28-.62,42.69-6.77,60.59-20.4,4.75-3.63,4.15,4.46,3.21,7.59-2.35,7.79-8.82,13.59-15.43,18.33-32.65,23.38-75.18,30.55-113.1,17.01-33.42-11.93-67.29-25.84-101.84-34.08-33.51-7.99-68.69-8.86-102.56-2.56-13.25,2.46-26.21,6.1-38.9,10.63-3.27,1.17-6.59,2.4-10.06,2.57-2.06,.1-5.42-.23-5.62-2.87-.07-.9,.25-1.78,.7-2.56,1.87-3.26,5.73-4.82,8.91-6.49,3.85-2.01,7.76-3.92,11.72-5.7,7.82-3.52,15.84-6.59,24.01-9.19,16.14-5.14,32.85-8.43,49.71-9.95,8.17-.74,16.38-1.07,24.59-1Z"/><path class="d" d="M948.06,402.07c-.1,.74-.55,1.53-1.46,2.34-2.77,2.44-6.36,4.23-9.73,5.68-14.05,6.08-31.33,7.2-46.15,3.52-7.13-1.77-13.76-5.13-20.12-8.81-30-17.36-55.25-41.55-83.5-61.42-14.13-9.93-30.75-21.42-48.71-21.33-6.16,.03-7.35-3.01-1.45-5.64,6.13-2.74,13.02-3.14,19.73-3.32,10.62-.29,21.37-.14,31.69,2.37,17.01,4.13,31.61,14.25,46.31,23.27,13.78,8.46,27.3,17.12,40.48,26.52,10.45,7.46,21.07,15.15,32.59,20.89,11.49,5.72,24.23,8.18,36.41,11.95,2.32,.72,4.13,2.2,3.9,3.98Z"/><path class="d" d="M836,446.19c-14.05-.28-28.19-5.55-39.21-14.11-13.77-10.7-24.09-24.44-34.04-38.53-8.01-11.34-15.34-23.18-24.14-33.97-3.54-4.34-7.31-8.59-11.89-11.85-2.01-1.43-11.79-5.03-7.22-8.96,11.72,2.28,23.31,5.61,33.92,11.09,36.72,18.98,56.8,59.78,95.71,75.53,5.72,2.31,11.56,4,17.57,5.35,.57,.13,1.16,.27,1.64,.61,1.03,.76,1.15,2.35,.59,3.51s-1.63,1.97-2.7,2.7c-9.11,6.2-19.65,8.83-30.23,8.62Z"/><path class="d" d="M800.39,483.5c-16-.47-29.68-15.63-38.72-27.34-10.39-13.45-18.1-28.25-25.54-43.48-7.65-15.67-14.76-31.6-21.32-47.77-2.91-7.19,5.41-2.38,7.67-.18,24.59,23.83,37.28,56.72,59.87,82.18,4.82,5.43,10.11,10.53,16.18,14.55,3.14,2.08,6.48,3.86,10,5.19,2.68,1.01,7.47,1.26,7.99,4.76,.26,1.77-.52,3.54-1.53,5.02-3.29,4.8-8.85,7.25-14.59,7.08Z"/><path class="d" d="M708.16,388.05c-.29-3.44-.36-7.31,1.27-9.31,1.2-1.48,3.82-1.55,4.12,.6,2.68,19.03,9.05,36.82,15.69,54.73,6.26,16.88,13.27,33.68,23.37,48.68,3.1,4.61,6.49,9.04,10.2,13.18,5.4,6.05,11.44,11.59,17.75,16.68,1.68,1.36,4.27,3.87,2.23,6.07-.68,.74-1.65,1.14-2.6,1.47-16.09,5.67-31.38-3.61-40.79-16.35-5.97-8.07-9.9-17.47-13.12-26.98-4.63-13.68-7.9-27.76-10.92-41.87-2.99-13.98-5.94-27.96-6.77-42.27-.07-1.22-.28-2.87-.43-4.64Z"/></g><path class="c" d="M974.78,623.18c-3.96-9.89-7.84-19.8-11.7-29.73-9.94-25.58-19.88-51.16-29.75-76.76-.67-1.72-1.55-2.25-3.34-2.21-5.77,.11-11.55,.18-17.32-.02-2.3-.08-3.21,.81-3.96,2.79-12.14,31.87-24.34,63.71-36.51,95.56-1.63,4.27-3.22,8.57-4.92,13.11,6.8,0,13.19-.11,19.57,.06,2.22,.06,3.18-.63,3.82-2.75,2.2-7.25,4.67-14.41,6.91-21.65,.55-1.76,1.36-2.34,3.23-2.33,13.2,.09,26.4,.09,39.59,0,1.85-.01,2.7,.53,3.28,2.29,2.46,7.38,5.1,14.7,7.6,22.06,.55,1.63,1.26,2.42,3.2,2.37,6.18-.16,12.37-.17,18.56,0,2.66,.07,2.52-.82,1.73-2.79Zm-69.34-43.72c4.93-14.07,9.81-27.97,15-42.75,5.32,14.72,10.35,28.65,15.44,42.75h-30.43Z"/><g><path class="c" d="M.15,24.53C-1.55,60.51,11.07,91.41,36.79,116.96c41.18,40.92,96.97,60.57,154.55,55.69,30.51-2.59,60.64-9.08,91.22-10.56,38.15-1.84,76.26,4.74,111.96,18.14,34.57,12.97,66.84,32.82,93.4,58.52,1.05,1.02,2.09,2.04,3.13,3.08,2.02,2.02,4.59,4.72,7.5,5.4,1.3,.3,2.85-.06,3.55-1.2,.41-.67,.47-1.49,.43-2.28-.17-3.32-1.83-6.36-3.57-9.19-9.35-15.24-22.02-28.27-36.09-39.3-29.45-23.06-64.63-39.67-100.66-49.37-7.14-1.92-14.35-3.57-21.61-4.94-48.96-9.23-99.34-5.78-149-9.8C122.57,125.57,51.92,101.22,10.86,42.17c-3.1-4.46-5.58-9.35-8.37-14.02-.73-1.23-1.56-2.41-2.34-3.62Z"/><path class="c" d="M173.28,231.83c26.72-.24,53.39-3.04,79.57-8.12,26.31-5.1,53.01-8.86,79.86-8.97,37.09-.16,75.58,5.85,109.64,21,11.28,5.02,22.01,11.27,31.93,18.61,2.38,1.76,14.46,8.9,10.46,.37-3.04-6.49-8.42-11.57-14.01-16.07-13.73-11.04-29.41-19.41-45.81-25.76-4.14-1.6-8.33-3.08-12.55-4.45-3.73-1.21-7.47-1.56-11.15-2.82-8.95-3.04-18.12-5.39-27.42-7.09-26.23-4.8-53.1-4.71-79.63-3.03-39.52,2.5-79.63,9.51-119.24,6.1-2.55-.22-5.1-.49-7.64-.8-24.44-3.04-48.02-10.74-70.6-20.38-11.39-4.86-22.56-10.21-33.62-15.77-5.89-2.96-11.25-6.63-17.54-8.76-2.71-.91-5.8-.63-4.94,2.91,3.32,13.7,12.37,24.77,21.75,34.89,9.3,10.03,20.24,18.79,32.87,24.23,23.15,9.98,46.36,13.7,71.53,13.88,2.18,.02,4.36,.01,6.54,0Z"/><path class="c" d="M410.16,276.54c-26.74,.16-53.26,6.73-78.11,16.49-30.02,11.79-57.28,30.64-88.78,38.57-16.6,4.18-33.76,5.04-50.77,6.06-5.36,.32-13.02-1.43-17.92,1.25-8.28,4.51,4.89,13.41,9.32,16.08,17.52,10.54,37.72,17.08,58.17,16.87,27.04-.27,54.26-11.77,77.36-25.39,19.45-11.46,39.77-21.4,60.65-30.01,16.9-6.97,34.05-13.29,52.16-16.17,11.54-1.83,20.86-4.17,32.59-4.48,7.62-.2,17.38,.92,24.86,2.48,1.1,.23,2.97,.54,4.34,.15,1.6-.45,1.6-2.76,.04-3.33-21.31-7.78-42.97-15.15-65.51-17.62-6.13-.67-12.27-.97-18.4-.94Z"/><path class="c" d="M351.33,232.04c-24.58,.19-49.3,3.89-73.46,10.61-2.06,.57-4.12,1.13-6.17,1.72-22.45,6.42-44.65,13.74-67.38,19.19-18.76,4.49-37.67,7.7-57.06,7.17-22.28-.62-42.69-6.77-60.59-20.4-4.75-3.63-4.15,4.46-3.21,7.59,2.35,7.79,8.82,13.59,15.43,18.33,32.65,23.38,75.18,30.55,113.1,17.01,33.42-11.93,67.29-25.84,101.84-34.08,33.51-7.99,68.69-8.86,102.56-2.56,13.25,2.46,26.21,6.1,38.9,10.63,3.27,1.17,6.59,2.4,10.06,2.57,2.06,.1,5.42-.23,5.62-2.87,.07-.9-.25-1.78-.7-2.56-1.87-3.26-5.73-4.82-8.91-6.49-3.85-2.01-7.76-3.92-11.72-5.7-7.82-3.52-15.84-6.59-24.01-9.19-16.14-5.14-32.85-8.43-49.71-9.95-8.17-.74-16.38-1.07-24.59-1Z"/><path class="c" d="M290.61,402.07c.1,.74,.55,1.53,1.46,2.34,2.77,2.44,6.36,4.23,9.73,5.68,14.05,6.08,31.33,7.2,46.15,3.52,7.13-1.77,13.76-5.13,20.12-8.81,30-17.36,55.25-41.55,83.5-61.42,14.13-9.93,30.75-21.42,48.71-21.33,6.16,.03,7.35-3.01,1.45-5.64-6.13-2.74-13.02-3.14-19.73-3.32-10.62-.29-21.37-.14-31.69,2.37-17.01,4.13-31.61,14.25-46.31,23.27-13.78,8.46-27.3,17.12-40.48,26.52-10.45,7.46-21.07,15.15-32.59,20.89s-24.23,8.18-36.41,11.95c-2.32,.72-4.13,2.2-3.9,3.98Z"/><path class="c" d="M402.67,446.19c14.05-.28,28.19-5.55,39.21-14.11,13.77-10.7,24.09-24.44,34.04-38.53,8.01-11.34,15.34-23.18,24.14-33.97,3.54-4.34,7.31-8.59,11.89-11.85,2.01-1.43,11.79-5.03,7.22-8.96-11.72,2.28-23.31,5.61-33.92,11.09-36.72,18.98-56.8,59.78-95.71,75.53-5.72,2.31-11.56,4-17.57,5.35-.57,.13-1.16,.27-1.64,.61-1.03,.76-1.15,2.35-.59,3.51s1.63,1.97,2.7,2.7c9.11,6.2,19.65,8.83,30.23,8.62Z"/><path class="c" d="M438.28,483.5c16-.47,29.68-15.63,38.72-27.34,10.39-13.45,18.1-28.25,25.54-43.48,7.65-15.67,14.76-31.6,21.32-47.77,2.91-7.19-5.41-2.38-7.67-.18-24.59,23.83-37.28,56.72-59.87,82.18-4.82,5.43-10.11,10.53-16.18,14.55-3.14,2.08-6.48,3.86-10,5.19-2.68,1.01-7.47,1.26-7.99,4.76-.26,1.77,.52,3.54,1.53,5.02,3.29,4.8,8.85,7.25,14.59,7.08Z"/><path class="c" d="M530.51,388.05c.29-3.44,.36-7.31-1.27-9.31-1.2-1.48-3.82-1.55-4.12,.6-2.68,19.03-9.05,36.82-15.69,54.73-6.26,16.88-13.27,33.68-23.37,48.68-3.1,4.61-6.49,9.04-10.2,13.18-5.4,6.05-11.44,11.59-17.75,16.68-1.68,1.36-4.27,3.87-2.23,6.07,.68,.74,1.65,1.14,2.6,1.47,16.09,5.67,31.38-3.61,40.79-16.35,5.97-8.07,9.9-17.47,13.12-26.98,4.63-13.68,7.9-27.76,10.92-41.87,2.99-13.98,5.94-27.96,6.77-42.27,.07-1.22,.28-2.87,.43-4.64Z"/></g></g></svg>